<svg id="eCa0RNDLg3J1" xmlns="http://www.w3.org/2000/svg" xmlns:xlink="http://www.w3.org/1999/xlink"
    viewBox="0 0 1131 812.20611"
    width="1131"
    height="812.20611">
    <style><![CDATA[
#eCa0RNDLg3J2 {animation: eCa0RNDLg3J2_f_p 5000ms linear infinite normal forwards}@keyframes eCa0RNDLg3J2_f_p { 0% {fill: #ffc107} 42% {fill: #ffc107} 44% {fill: #ff0707} 74% {fill: #ff0707} 76% {fill: #ffc107} 100% {fill: #ffc107}} #eCa0RNDLg3J3 {animation: eCa0RNDLg3J3_f_p 5000ms linear infinite normal forwards}@keyframes eCa0RNDLg3J3_f_p { 0% {fill: #ffc107} 46% {fill: #ffc107} 48% {fill: #ff0707} 78% {fill: #ff0707} 80% {fill: #ffc107} 100% {fill: #ffc107}} #eCa0RNDLg3J4 {animation: eCa0RNDLg3J4_f_p 5000ms linear infinite normal forwards}@keyframes eCa0RNDLg3J4_f_p { 0% {fill: #ffc107} 46% {fill: #ffc107} 48% {fill: #ff0707} 78% {fill: #ff0707} 80% {fill: #ffc107} 100% {fill: #ffc107}} #eCa0RNDLg3J5 {animation: eCa0RNDLg3J5_f_p 5000ms linear infinite normal forwards}@keyframes eCa0RNDLg3J5_f_p { 0% {fill: #ffc107} 38% {fill: #ffc107} 40% {fill: #ff0707} 70% {fill: #ff0707} 72% {fill: #ffc107} 100% {fill: #ffc107}} #eCa0RNDLg3J6 {animation: eCa0RNDLg3J6_f_p 5000ms linear infinite normal forwards}@keyframes eCa0RNDLg3J6_f_p { 0% {fill: #ffc107} 42% {fill: #ffc107} 44% {fill: #ff0707} 74% {fill: #ff0707} 76% {fill: #ffc107} 100% {fill: #ffc107}} #eCa0RNDLg3J7 {animation: eCa0RNDLg3J7_f_p 5000ms linear infinite normal forwards}@keyframes eCa0RNDLg3J7_f_p { 0% {fill: #ffc107} 42% {fill: #ffc107} 44% {fill: #ff0707} 74% {fill: #ff0707} 76% {fill: #ffc107} 100% {fill: #ffc107}} #eCa0RNDLg3J11 {animation: eCa0RNDLg3J11_c_o 5000ms linear infinite normal forwards}@keyframes eCa0RNDLg3J11_c_o { 0% {opacity: 0.3} 6% {opacity: 0.3} 8% {opacity: 1} 10% {opacity: 0.3} 100% {opacity: 0.3}} #eCa0RNDLg3J12 {animation: eCa0RNDLg3J12_c_o 5000ms linear infinite normal forwards}@keyframes eCa0RNDLg3J12_c_o { 0% {opacity: 0.3} 8% {opacity: 0.3} 10% {opacity: 1} 12% {opacity: 0.3} 100% {opacity: 0.3}} #eCa0RNDLg3J13 {animation: eCa0RNDLg3J13_c_o 5000ms linear infinite normal forwards}@keyframes eCa0RNDLg3J13_c_o { 0% {opacity: 0.3} 8% {opacity: 0.3} 10% {opacity: 1} 12% {opacity: 0.3} 100% {opacity: 0.3}} #eCa0RNDLg3J14 {animation: eCa0RNDLg3J14_c_o 5000ms linear infinite normal forwards}@keyframes eCa0RNDLg3J14_c_o { 0% {opacity: 0.3} 2% {opacity: 0.3} 4% {opacity: 1} 6% {opacity: 0.3} 100% {opacity: 0.3}} #eCa0RNDLg3J15 {animation: eCa0RNDLg3J15_c_o 5000ms linear infinite normal forwards}@keyframes eCa0RNDLg3J15_c_o { 0% {opacity: 0.3} 2% {opacity: 1} 4% {opacity: 0.3} 100% {opacity: 0.3}} #eCa0RNDLg3J21 {animation-name: eCa0RNDLg3J21_c_o, eCa0RNDLg3J21_f_p;animation-duration: 5000ms;animation-fill-mode: forwards;animation-timing-function: linear;animation-direction: normal;animation-iteration-count: infinite;}@keyframes eCa0RNDLg3J21_c_o { 0% {opacity: 1} 18% {opacity: 1} 22% {opacity: 0.5} 26% {opacity: 1} 32% {opacity: 1} 34% {opacity: 0.5} 36% {opacity: 1} 100% {opacity: 1}}@keyframes eCa0RNDLg3J21_f_p { 0% {fill: #ffc107} 12% {fill: #ffc107} 14% {fill: #ff0707} 36% {fill: #ff0707} 66% {fill: #ff0707} 70% {fill: #ffc107} 100% {fill: #ffc107}} #eCa0RNDLg3J58_tr {animation: eCa0RNDLg3J58_tr__tr 5000ms linear infinite normal forwards}@keyframes eCa0RNDLg3J58_tr__tr { 0% {transform: translate(135.33781px,207.03926px) rotate(720deg);animation-timing-function: cubic-bezier(0.415,0.08,0.115,0.955)} 100% {transform: translate(135.33781px,207.03926px) rotate(252.467532deg)}} #eCa0RNDLg3J59_tr {animation: eCa0RNDLg3J59_tr__tr 5000ms linear infinite normal forwards}@keyframes eCa0RNDLg3J59_tr__tr { 0% {transform: translate(11.12px,29.9px) rotate(-720deg);animation-timing-function: cubic-bezier(0.415,0.08,0.115,0.955)} 100% {transform: translate(11.12px,29.9px) rotate(-252.467532deg)}}
]]></style>
    <defs></defs>
    <rect id="eCa0RNDLg3J2" width="80.8015" height="30.0916" rx="0" ry="0"
        transform="translate(689.328 51.2672)" opacity="0.3" fill="#ffc107" />
    <rect id="eCa0RNDLg3J3" width="80.8015" height="30.0916" rx="0" ry="0"
        transform="translate(823.626 0)" opacity="0.3" fill="#ffc107" />
    <rect id="eCa0RNDLg3J4" width="80.8015" height="30.0916" rx="0" ry="0"
        transform="translate(829.198 93.0611)" opacity="0.3" fill="#ffc107" />
    <rect id="eCa0RNDLg3J5" width="80.8015" height="30.0916" rx="0" ry="0"
        transform="translate(570.634 127.611)" opacity="0.3" fill="#ffc107" />
    <rect id="eCa0RNDLg3J6" width="80.8015" height="30.0916" rx="0" ry="0"
        transform="translate(545 251.321)" opacity="0.3" fill="#ffc107" />
    <rect id="eCa0RNDLg3J7" width="80.8015" height="30.0916" rx="0" ry="0"
        transform="translate(667.038 248.534)" opacity="0.3" fill="#ffc107" />
    <polyline points="823.626,14.856 770.13,65.616 829.198,108.107" fill="none" stroke="#3f3d56"
        stroke-miterlimit="10" />
    <line x1="689.32824" y1="65.61641" x2="611.03435" y2="127.61069" fill="none" stroke="#3f3d56"
        stroke-miterlimit="10" />
    <polyline points="585.401,251.297 611.034,157.702 707.439,248.534" fill="none" stroke="#3f3d56"
        stroke-miterlimit="10" />
    <rect id="eCa0RNDLg3J11" width="80.8015" height="30.0916" rx="0" ry="0"
        transform="translate(144.328 82.2672)" opacity="0.3" fill="#ffc107" />
    <rect id="eCa0RNDLg3J12" width="80.8015" height="30.0916" rx="0" ry="0"
        transform="translate(278.626 31)" opacity="0.3" fill="#ffc107" />
    <rect id="eCa0RNDLg3J13" width="80.8015" height="30.0916" rx="0" ry="0"
        transform="translate(284.198 124.061)" opacity="0.3" fill="#ffc107" />
    <rect id="eCa0RNDLg3J14" width="80.8015" height="30.0916" rx="0" ry="0"
        transform="translate(24.379795 158.6104)" opacity="0.3" fill="#ffc107" />
    <rect id="eCa0RNDLg3J15" width="80.8015" height="30.0916" rx="0" ry="0"
        transform="translate(0 282.321)" opacity="0.3" fill="#ffc107" />
    <rect width="80.8015" height="30.0916" rx="0" ry="0" transform="translate(122.038 279.534)"
        opacity="0.3" fill="#ffc107" />
    <polyline points="278.626,45.856 225.13,96.616 284.198,139.107" fill="none" stroke="#3f3d56"
        stroke-miterlimit="10" />
    <line x1="144.32824" y1="96.61641" x2="66.03435" y2="158.61069" fill="none" stroke="#3f3d56"
        stroke-miterlimit="10" />
    <polyline points="40.401,282.297 66.034,188.702 162.439,279.534" fill="none" stroke="#3f3d56"
        stroke-miterlimit="10" />
    <line x1="365" y1="139.10687" x2="456.63359" y2="139.10687" fill="none" stroke="#3f3d56"
        stroke-miterlimit="10" />
    <rect id="eCa0RNDLg3J21" width="95" height="30" rx="0" ry="0"
        transform="translate(415.5 123.706)" fill="#ffc107" />
    <line x1="510.62322" y1="138.70611" x2="570.63359" y2="138.70611" fill="none" stroke="#3f3d56"
        stroke-miterlimit="10" />
    <line x1="415.04486" y1="138.70611" x2="359.42748" y2="45.8564" fill="none" stroke="#3f3d56"
        stroke-miterlimit="10" />
    <ellipse rx="440" ry="98" transform="translate(691 714.206)" fill="#f2f2f2" />
    <polygon
        points="894.984,391.611 852.078,606.582 842.79,606.582 841.768,604.994 838.809,600.39 875.964,399.572 881.604,397.21 894.984,391.611"
        fill="#47465a" />
    <polygon points="881.604,397.21 841.768,604.994 838.809,600.39 875.964,399.572 881.604,397.21"
        opacity="0.1" />
    <polygon
        points="959.564,684.432 948.533,687.988 945.852,688.855 942.313,680.893 881.604,403.96 887.916,402.545 901.177,399.572 959.564,684.432"
        fill="#47465a" />
    <polygon
        points="948.533,687.988 945.852,688.855 942.313,680.893 881.604,403.96 887.916,402.545 948.533,687.988"
        opacity="0.1" />
    <polygon
        points="433.636,391.611 423.905,670.277 412.753,672.754 411.962,672.931 408.865,667.181 415.058,394.264 421.016,393.415 433.636,391.611"
        fill="#47465a" />
    <polygon
        points="421.016,393.415 412.753,672.754 411.962,672.931 408.865,667.181 415.058,394.264 421.016,393.415"
        opacity="0.1" />
    <polygon
        points="491.581,768.917 480.045,770.907 478.753,771.128 475.215,763.609 419.039,399.572 420.658,399.081 429.213,396.476 491.581,768.917"
        fill="#47465a" />
    <polygon
        points="480.045,770.907 478.753,771.128 475.215,763.609 419.039,399.572 420.658,399.081 480.045,770.907"
        opacity="0.1" />
    <path
        d="M770.24611,412.94872l42.95118,54.88207c2.993666,3.82524,7.763978,5.814497,12.58842,5.24947l176.3179-20.64984c7.017466-.821864,12.307789-6.767931,12.30779-13.83336v-40.6875L770.24611,412.94872Z"
        transform="translate(-34.5-43.8969)" fill="#7a799c" />
    <path
        d="M880.3875,377.89835h11.94287v17.23649c0,2.450819-1.986781,4.4376-4.4376,4.4376h-3.06767c-2.450819,0-4.4376-1.986781-4.4376-4.4376v-17.23649Z"
        fill="#47465a" />
    <path
        d="M453.539,447.89267l42.95118,54.88206c2.993665,3.825242,7.763976,5.814503,12.58842,5.24948l176.3179-20.64984c7.017449-.821891,12.307748-6.767954,12.30775-13.83337v-40.6875L453.539,447.89267Z"
        transform="translate(-34.5-43.8969)" fill="#7a799c" />
    <path
        d="M563.68035,412.84229h11.94287v17.23649c0,2.450819-1.986781,4.4376-4.4376,4.4376h-3.06762c-2.450819,0-4.4376-1.986781-4.4376-4.4376v-17.23649Z"
        fill="#47465a" />
    <path
        d="M502.88475,475.68812l524.45934-61.09027c3.383476-.394116,6.107703-2.961184,6.701935-6.315305s-1.082279-6.700845-4.124425-8.233355l-93.81678-47.18187c-18.478085-9.292908-39.225886-13.115161-59.80247-11.01708L410.3605,389.3598c-3.399456.355604-6.296644,2.622818-7.459019,5.837105s-.385442,6.810165,2.000269,9.257845l54.25911,55.66844c11.380174,11.675762,27.525798,17.423318,43.72389,15.56493Z"
        transform="translate(-34.5-43.8969)" fill="#47465a" />
    <path
        d="M1085.04368,406.31845l-5.61-3.101c0,0-6.05628,4.45811-10.99,23.23965s9.22074.20375,9.22074.20375l6.1926-12.82752l1.18666-7.51488Z"
        transform="translate(-34.5-43.8969)" fill="#47465a" />
    <path
        d="M1025.02728,578.37955c0,0-5.75027,26.982-8.40424,34.50162-1.30042,3.68018-7.58157,7.04629-14.54371,9.62064-6.173069,2.299598-12.563551,3.966871-19.07325,4.9762-7.51958.88466-103.94718-14.15451-150.834-24.32806-31.58664-6.85167-35.66943-14.71185-34.97051-19.1086.224911-1.308946.852724-2.515067,1.79588-3.45015s46.44448-31.40532,62.81063-46.44449s48.65613-3.0963,84.0424,3.0963s79.1768,41.13654,79.1768,41.13654Z"
        transform="translate(-34.5-43.8969)" fill="#47465a" />
    <path
        d="M1079.43367,403.2175c0,0,21.6741,14.15451-51.31009,43.34818c0,0-39.669,22.36656-34.50509,114.50318.244779,4.143109,1.506268,8.16215,3.673,11.702c7.5302,12.3852,23.66634,43.73743-3.22723,47.62992v7.07722c0,0,48.65613-24.32806,53.96407-45.1175s23.00107-136.23715,31.84764-146.853s14.59687-27.42439-.4423-32.29Z"
        transform="translate(-34.5-43.8969)" fill="#47465a" />
    <path
        d="M1002.07933,622.50181c-6.173069,2.299598-12.563551,3.966871-19.07325,4.9762-7.51958.88466-103.94718-14.15451-150.834-24.32806-31.58664-6.85167-35.66943-14.71185-34.97051-19.1086c20.76287,7.09937,88.18264,29.63158,112.378,31.49379c28.75135,2.21164,83.67966,8.36,87.842,4.18c1.6012-1.61007,3.24222.08845,4.65776,2.78667Z"
        transform="translate(-34.5-43.8969)" opacity="0.1" />
    <path
        d="M749.45667,806.621l42.0212-191.97054c0,0,7.51959-20.3471,24.77039-19.46245L832.17209,603.15c0,0-26.53971-6.1926-32.29,14.1545s-42.46351,189.3165-42.46351,189.3165h-7.96191Z"
        transform="translate(-34.5-43.8969)" fill="#47465a" />
    <polygon
        points="815.808,675.143 832.616,557.926 840.136,557.926 822.885,675.143 815.808,675.143"
        fill="#47465a" />
    <path
        d="M1011.3151,833.60305l-15.92383-183.124c0,0,0-15.4815,7.96192-23.00108s33.66494-28.97011,33.66494-28.97011s6.58694-1.55055,11.89488,13.48861s42.0212,165.43083,42.0212,165.43083l-7.07725,3.0963-45.55983-173.3927-31.40532,29.636c0,0-6.19259,11.05821-3.0963,21.23176s14.59684,175.60438,14.59684,175.60438l-7.07725.00001Z"
        transform="translate(-34.5-43.8969)" fill="#47465a" />
    <polygon
        points="927.717,579.158 967.526,590.658 976.373,582.254 953.372,579.158 927.717,579.158"
        fill="#47465a" />
    <path
        d="M608.31275,300.20117l6.45492,96.82373l141.10276-13.71218-5.61479-94.64939c-.151919-2.560935-1.331041-4.95215-3.270177-6.631797s-4.474123-2.50553-7.030533-2.290503L617.0133,290.08191c-5.174843.43527-9.04599,4.937646-8.70055,10.11926Z"
        transform="translate(-34.5-43.8969)" fill="#7a799c" />
    <polygon
        points="768.7,367.282 628.039,382.627 622.731,383.206 581.595,356.667 581.595,350.916 721.37,338.328 768.7,367.282"
        fill="#7a799c" />
    <polygon
        points="628.039,382.627 622.731,383.206 581.595,356.667 581.595,351.518 628.039,382.627"
        opacity="0.1" />
    <polygon points="583.364,255.373 588.23,341.627 712.082,330.127 707.658,246.084 583.364,255.373"
        fill="#9493b6" />
    <polygon points="657.233,365.513 672.272,375.687 717.832,371.263 702.35,361.532 657.233,365.513"
        opacity="0.1" />
    <polygon points="595.749,353.128 614.769,367.282 736.41,355.782 714.736,341.627 595.749,353.128"
        fill="#9493b6" />
</svg>
